<?xml version="1.0" standalone="no"?>
<!DOCTYPE svg PUBLIC "-//W3C//DTD SVG 20010904//EN"
 "http://www.w3.org/TR/2001/REC-SVG-20010904/DTD/svg10.dtd">
<svg version="1.0" xmlns="http://www.w3.org/2000/svg"
 width="300.000000pt" height="79.000000pt" viewBox="0 0 300.000000 79.000000"
 preserveAspectRatio="xMidYMid meet">

<g transform="translate(0.000000,79.000000) scale(0.100000,-0.100000)"
fill="#000000" stroke="none">
<path d="M760 433 c-6 -32 -16 -74 -21 -93 -12 -46 -11 -50 5 -50 9 0 18 22
27 65 7 35 16 62 19 60 4 -3 13 -32 20 -65 l13 -60 38 0 37 0 15 68 c30 133
30 132 14 132 -10 0 -19 -20 -27 -66 -7 -36 -16 -62 -20 -57 -4 4 -12 34 -19
66 l-12 57 -39 0 -39 0 -11 -57z"/>
<path d="M962 432 c-24 -117 -13 -142 61 -142 56 0 83 29 103 115 10 41 15 77
11 81 -13 13 -25 -8 -37 -68 -15 -78 -25 -98 -51 -98 -29 0 -34 24 -17 101
l15 69 -37 0 c-36 0 -36 0 -48 -58z"/>
<path d="M1160 480 c0 -5 12 -10 26 -10 19 0 24 -4 20 -17 -3 -10 -10 -40 -16
-68 -5 -27 -12 -60 -15 -72 -5 -20 -2 -23 29 -23 34 0 35 1 46 58 23 114 24
117 53 120 15 2 27 8 27 13 0 5 -38 9 -85 9 -50 0 -85 -4 -85 -10z"/>
<path d="M1340 433 c-6 -32 -16 -74 -21 -93 -13 -50 -13 -50 25 -50 33 0 35 2
44 43 l9 42 12 -30 c6 -16 14 -36 16 -42 2 -7 20 -13 39 -13 l35 0 -16 44
c-16 42 -16 44 5 71 44 56 19 85 -73 85 l-64 0 -11 -57z m106 23 c7 -19 -13
-56 -32 -56 -11 0 -13 7 -8 28 11 45 29 58 40 28z"/>
<path d="M1540 433 c-6 -32 -16 -74 -21 -93 -13 -50 -13 -50 25 -50 34 0 35 1
46 58 6 31 16 73 21 92 13 50 13 50 -25 50 -34 0 -35 -1 -46 -57z"/>
<path d="M1655 478 c-8 -27 -35 -158 -35 -172 0 -13 13 -16 65 -16 37 0 65 4
65 10 0 6 -13 10 -30 10 -31 0 -34 7 -24 48 5 16 14 22 35 22 16 0 29 5 29 10
0 6 -11 10 -25 10 -26 0 -29 9 -19 48 5 17 14 22 40 22 19 0 34 5 34 10 0 15
-130 13 -135 -2z"/>
<path d="M1817 483 c-10 -19 -40 -184 -33 -190 11 -12 22 10 36 72 14 65 15
64 40 -32 10 -40 13 -43 46 -43 39 0 37 -4 63 113 15 71 16 87 5 87 -7 0 -16
-12 -20 -27 -3 -16 -11 -46 -17 -68 l-10 -40 -16 65 c-17 64 -17 65 -53 68
-20 2 -38 -1 -41 -5z"/>
<path d="M2000 480 c0 -5 11 -10 25 -10 14 0 25 -1 25 -3 0 -2 -9 -42 -19 -90
l-19 -87 33 0 c35 0 37 3 50 70 18 95 25 110 50 110 14 0 25 5 25 10 0 6 -35
10 -85 10 -50 0 -85 -4 -85 -10z"/>
<path d="M2294 480 c-37 -15 -64 -59 -64 -104 0 -57 17 -77 71 -82 56 -6 93
12 97 49 5 40 -37 38 -60 -3 -24 -43 -38 -37 -38 15 0 86 50 154 58 81 3 -23
8 -27 30 -24 22 2 28 9 30 34 3 26 -1 33 -20 38 -31 8 -79 6 -104 -4z"/>
<path d="M2448 390 c-33 -72 -42 -100 -32 -100 8 0 20 11 26 25 9 21 18 25 42
23 23 -2 32 -9 34 -25 3 -19 10 -23 39 -23 l35 0 -6 68 c-14 132 -14 132 -55
132 l-37 0 -46 -100z m62 5 c0 -28 -4 -35 -20 -35 -23 0 -25 9 -8 45 16 35 28
31 28 -10z"/>
<path d="M2646 473 c-7 -24 -36 -162 -36 -174 0 -5 29 -9 65 -9 51 0 65 3 65
15 0 10 -10 15 -30 15 -26 0 -30 3 -25 23 3 12 11 50 19 85 l14 62 -33 0 c-23
0 -35 -5 -39 -17z"/>
<path d="M2813 470 c-40 -24 -53 -48 -53 -99 0 -62 42 -90 117 -78 43 7 50 14
55 47 2 20 -2 26 -22 28 -19 2 -29 -5 -42 -28 -10 -17 -22 -28 -28 -25 -16 10
-12 77 8 114 22 45 40 50 44 14 2 -22 8 -28 27 -28 18 0 26 7 32 28 6 24 4 29
-17 38 -40 14 -86 11 -121 -11z"/>
</g>
</svg>
